<?xml version="1.0" encoding="iso-8859-1"?>
<!-- Uploaded to: SVG Repo, www.svgrepo.com, Generator: SVG Repo Mixer Tools -->
<svg height="800px" width="800px" version="1.1" id="Layer_1" xmlns="http://www.w3.org/2000/svg" xmlns:xlink="http://www.w3.org/1999/xlink" 
	 viewBox="0 0 512 512" xml:space="preserve">
<path style="fill:#129A58;" d="M266.723,359.625c1.022-1.751,2.896-2.827,4.923-2.827h12.218l-38.264-57.226
	c-1.169-1.747-1.28-3.997-0.289-5.852c0.99-1.855,2.922-3.012,5.025-3.012h4.596L225.357,250l-29.575,40.708h4.598
	c2.103,0,4.034,1.158,5.025,3.012c0.991,1.855,0.88,4.103-0.289,5.852l-38.265,57.226h12.222c2.027,0,3.901,1.077,4.923,2.827
	c1.022,1.751,1.034,3.914,0.035,5.677l-29.463,52.037l65.09-9.798v-3.198l-17.18-14.43c-2.408-2.024-2.722-5.618-0.698-8.027
	c2.024-2.409,5.616-2.721,8.027-0.699l9.85,8.274v-16.243l-17.18-14.434c-2.409-2.025-2.722-5.618-0.698-8.027
	c2.024-2.409,5.619-2.721,8.027-0.698l9.85,8.275v-16.244l-17.18-14.43c-2.408-2.025-2.722-5.618-0.699-8.027
	c2.026-2.411,5.619-2.722,8.028-0.699l9.85,8.274v-26.964c0-3.146,2.551-5.697,5.697-5.697s5.697,2.551,5.697,5.697v26.967
	l9.854-8.276c2.406-2.025,6-1.712,8.027,0.699c2.023,2.409,1.71,6.004-0.7,8.027l-17.181,14.428v16.245l9.853-8.276
	c2.409-2.024,6.003-1.712,8.027,0.698c2.024,2.409,1.712,6.004-0.698,8.027l-17.182,14.434v16.243l9.853-8.275
	c2.409-2.025,6.001-1.713,8.028,0.699c2.023,2.409,1.71,6.004-0.7,8.027l-17.181,14.43v3.199l65.093,9.798L266.685,365.3
	C265.688,363.537,265.702,361.376,266.723,359.625z"/>
<polygon style="fill:#E1B658;" points="336.52,173.687 359.073,498.208 381.003,489.75 357.104,189.931 "/>
<path style="fill:#BDF3FF;" d="M312.326,166.935v42.264c0,3.146-2.551,5.697-5.697,5.697c-3.146,0-5.697-2.551-5.697-5.697v-42.264
	H149.788v42.264c0,3.146-2.551,5.697-5.697,5.697s-5.697-2.551-5.697-5.697v-42.264h-16.302l-23.19,333.668H223.36h124.459
	l-23.19-333.668H312.326z M299.162,300.35c1.064-1.064,2.532-1.671,4.04-1.671c1.494,0,2.963,0.608,4.026,1.671
	c1.064,1.064,1.671,2.532,1.671,4.026c0,1.507-0.608,2.975-1.671,4.039c-1.064,1.051-2.532,1.659-4.026,1.659
	c-1.508,0-2.977-0.608-4.04-1.659c-1.051-1.064-1.671-2.532-1.671-4.039C297.491,302.882,298.112,301.412,299.162,300.35z
	 M268.714,182.97c1.064-1.064,2.52-1.671,4.026-1.671c1.494,0,2.963,0.608,4.026,1.671c1.065,1.064,1.671,2.532,1.671,4.026
	s-0.608,2.963-1.671,4.026c-1.064,1.064-2.532,1.671-4.026,1.671c-1.505,0-2.963-0.608-4.026-1.671
	c-1.064-1.051-1.671-2.52-1.671-4.026C267.042,185.502,267.651,184.034,268.714,182.97z M258.546,236.273
	c1.064-1.051,2.532-1.659,4.039-1.659c1.494,0,2.963,0.608,4.026,1.659c1.064,1.064,1.671,2.532,1.671,4.026
	c0,1.507-0.608,2.975-1.671,4.039c-1.064,1.051-2.532,1.659-4.026,1.659c-1.507,0-2.977-0.608-4.039-1.659
	c-1.051-1.064-1.659-2.532-1.659-4.039C256.889,238.805,257.495,237.336,258.546,236.273z M221.323,198.822
	c1.065-1.064,2.532-1.671,4.039-1.671c1.494,0,2.963,0.608,4.026,1.671c1.051,1.051,1.66,2.52,1.66,4.026
	c0,1.507-0.608,2.963-1.66,4.026c-1.064,1.064-2.532,1.671-4.026,1.671c-1.507,0-2.975-0.608-4.039-1.671
	c-1.05-1.064-1.659-2.532-1.659-4.026C219.664,201.34,220.273,199.873,221.323,198.822z M188.138,234.6
	c1.495,0,2.964,0.608,4.027,1.671c1.064,1.064,1.67,2.532,1.67,4.039c0,1.494-0.606,2.963-1.67,4.026
	c-1.064,1.051-2.532,1.659-4.027,1.659c-1.505,0-2.975-0.608-4.038-1.659c-1.064-1.064-1.671-2.532-1.671-4.026
	c0-1.507,0.608-2.975,1.671-4.039C185.163,235.208,186.633,234.6,188.138,234.6z M173.945,182.97
	c1.065-1.064,2.532-1.671,4.039-1.671c1.494,0,2.963,0.608,4.026,1.671c1.064,1.064,1.671,2.532,1.671,4.026
	c0,1.507-0.608,2.963-1.671,4.026c-1.064,1.064-2.532,1.671-4.026,1.671c-1.507,0-2.975-0.608-4.039-1.671
	c-1.051-1.051-1.659-2.52-1.659-4.026C172.288,185.49,172.895,184.021,173.945,182.97z M151.549,300.35
	c1.064,1.064,1.67,2.532,1.67,4.039c0,1.494-0.606,2.963-1.67,4.026c-1.064,1.051-2.532,1.659-4.027,1.659
	c-1.505,0-2.975-0.608-4.026-1.659c-1.064-1.064-1.671-2.532-1.671-4.026c0-1.507,0.608-2.975,1.671-4.039
	c1.051-1.051,2.52-1.659,4.026-1.659C149.017,298.692,150.486,299.299,151.549,300.35z M130.518,478.845
	c-1.064,1.064-2.532,1.671-4.026,1.671c-1.507,0-2.977-0.608-4.039-1.671c-1.051-1.064-1.659-2.532-1.659-4.026
	c0-1.507,0.606-2.975,1.659-4.026c1.064-1.064,2.532-1.671,4.039-1.671c1.494,0,2.963,0.608,4.026,1.671
	c1.064,1.064,1.671,2.532,1.671,4.026C132.191,476.312,131.582,477.781,130.518,478.845z M130.518,379.481
	c-1.064,1.064-2.532,1.671-4.026,1.671c-1.507,0-2.977-0.608-4.039-1.671c-1.051-1.064-1.659-2.532-1.659-4.026
	s0.606-2.963,1.659-4.026c1.064-1.064,2.532-1.671,4.039-1.671c1.494,0,2.963,0.608,4.026,1.671
	c1.064,1.064,1.671,2.532,1.671,4.026C132.191,376.949,131.582,378.418,130.518,379.481z M139.811,249.578
	c1.064-1.051,2.532-1.659,4.039-1.659c1.494,0,2.963,0.608,4.026,1.659c1.064,1.064,1.671,2.532,1.671,4.039
	c0,1.494-0.608,2.963-1.671,4.026c-1.064,1.051-2.532,1.671-4.026,1.671c-1.507,0-2.977-0.62-4.039-1.671
	c-1.051-1.064-1.659-2.532-1.659-4.026C138.154,252.111,138.76,250.643,139.811,249.578z M169.679,457.092
	c-1.064,1.051-2.532,1.671-4.026,1.671c-1.505,0-2.963-0.62-4.026-1.671c-1.064-1.064-1.671-2.532-1.671-4.026
	c0-1.507,0.608-2.975,1.671-4.039c1.051-1.051,2.52-1.659,4.026-1.659c1.494,0,2.963,0.608,4.026,1.659
	c1.065,1.064,1.671,2.532,1.671,4.039C171.35,454.56,170.743,456.03,169.679,457.092z M206.663,478.845
	c-1.051,1.064-2.52,1.671-4.027,1.671c-1.494,0-2.963-0.608-4.026-1.671c-1.064-1.064-1.671-2.532-1.671-4.026
	s0.608-2.963,1.671-4.026c1.064-1.064,2.532-1.671,4.026-1.671c1.507,0,2.977,0.608,4.027,1.671c1.064,1.064,1.67,2.532,1.67,4.026
	S207.726,477.781,206.663,478.845z M252.103,478.845c-1.064,1.064-2.532,1.671-4.026,1.671c-1.495,0-2.964-0.608-4.027-1.671
	c-1.064-1.064-1.67-2.532-1.67-4.026s0.608-2.963,1.67-4.026c1.064-1.064,2.532-1.671,4.027-1.671c1.494,0,2.963,0.608,4.026,1.671
	c1.064,1.064,1.671,2.532,1.671,4.026C253.774,476.312,253.165,477.781,252.103,478.845z M289.097,457.092
	c-1.064,1.051-2.532,1.659-4.026,1.659c-1.508,0-2.977-0.608-4.04-1.659c-1.051-1.064-1.657-2.532-1.657-4.026
	c0-1.507,0.606-2.975,1.657-4.039c1.064-1.064,2.532-1.671,4.04-1.671c1.494,0,2.963,0.608,4.026,1.671
	c1.064,1.064,1.671,2.532,1.671,4.039C290.77,454.56,290.161,456.03,289.097,457.092z M311.565,427.944
	c-1.074,1.56-2.836,2.469-4.693,2.469c-0.282,0-0.565-0.022-0.85-0.063l-74.968-11.285v22.585c0,3.146-2.551,5.697-5.697,5.697
	s-5.697-2.551-5.697-5.697v-22.585l-74.966,11.285c-0.285,0.043-0.567,0.063-0.85,0.063c-1.857,0-3.62-0.909-4.693-2.469
	c-1.236-1.795-1.337-4.14-0.263-6.035l30.413-53.715h-13.112c-2.103,0-4.035-1.159-5.025-3.012c-0.991-1.855-0.88-4.103,0.289-5.852
	l38.265-57.226h-5.116c-2.142,0-4.103-1.202-5.077-3.111c-0.972-1.909-0.791-4.202,0.467-5.935l40.757-56.1
	c1.85-2.546,5.41-3.112,7.957-1.261c0.499,0.362,0.896,0.803,1.241,1.276l0.022-0.015l40.756,56.1
	c1.259,1.733,1.44,4.026,0.467,5.935c-0.974,1.909-2.934,3.111-5.077,3.111H261l38.264,57.226c1.169,1.749,1.28,3.997,0.289,5.852
	c-0.99,1.855-2.922,3.012-5.025,3.012h-13.109l30.412,53.715C312.902,423.805,312.801,426.147,311.565,427.944z M310.899,257.645
	c-1.064,1.064-2.532,1.671-4.026,1.671c-1.505,0-2.975-0.608-4.038-1.671c-1.051-1.064-1.66-2.532-1.66-4.026
	c0-1.507,0.608-2.975,1.66-4.026c1.064-1.064,2.532-1.671,4.038-1.671c1.494,0,2.963,0.608,4.026,1.671
	c1.065,1.051,1.671,2.52,1.671,4.026C312.57,255.112,311.964,256.581,310.899,257.645z M328.257,478.845
	c-1.064,1.064-2.532,1.671-4.026,1.671c-1.505,0-2.975-0.608-4.038-1.671c-1.051-1.064-1.66-2.52-1.66-4.026
	c0-1.494,0.608-2.975,1.66-4.026c1.064-1.064,2.532-1.671,4.038-1.671c1.494,0,2.963,0.608,4.026,1.671
	c1.065,1.064,1.671,2.532,1.671,4.026S329.322,477.781,328.257,478.845z M329.929,375.454c0,1.494-0.606,2.963-1.671,4.026
	c-1.064,1.064-2.532,1.671-4.026,1.671c-1.505,0-2.975-0.608-4.038-1.671c-1.051-1.064-1.66-2.52-1.66-4.026
	c0-1.494,0.608-2.963,1.66-4.026c1.064-1.064,2.532-1.671,4.038-1.671c1.494,0,2.963,0.608,4.026,1.671
	C329.322,372.492,329.929,373.961,329.929,375.454z"/>
<g>
	<polygon style="fill:#E1B658;" points="362.585,179.74 378.809,166.935 346.36,166.935 	"/>
	<polygon style="fill:#E1B658;" points="368.507,189.583 392.417,489.546 412.897,497.669 390.287,172.392 	"/>
</g>
<g>
	<path style="fill:#4F413B;" d="M281.418,368.193h13.109c2.103,0,4.035-1.158,5.025-3.012c0.991-1.855,0.88-4.103-0.289-5.852
		L261,302.102h5.114c2.142,0,4.103-1.202,5.077-3.111c0.972-1.909,0.791-4.202-0.467-5.935l-40.756-56.1l-0.022,0.015
		c-0.343-0.474-0.742-0.914-1.241-1.276c-2.547-1.851-6.108-1.286-7.957,1.261l-40.757,56.1c-1.259,1.733-1.44,4.026-0.467,5.935
		c0.974,1.909,2.934,3.111,5.077,3.111h5.116l-38.265,57.226c-1.169,1.748-1.28,3.997-0.289,5.852
		c0.99,1.855,2.922,3.012,5.025,3.012H169.3l-30.413,53.715c-1.074,1.897-0.972,4.24,0.263,6.035
		c1.074,1.56,2.836,2.469,4.693,2.469c0.282,0,0.565-0.022,0.85-0.063l74.966-11.285v22.585c0,3.146,2.551,5.697,5.697,5.697
		s5.697-2.551,5.697-5.697v-22.585l74.968,11.285c0.285,0.043,0.567,0.063,0.85,0.063c1.857,0,3.62-0.909,4.693-2.469
		c1.236-1.795,1.337-4.139,0.263-6.035L281.418,368.193z M231.055,407.541v-3.199l17.181-14.43c2.409-2.023,2.722-5.618,0.7-8.027
		c-2.026-2.411-5.619-2.722-8.028-0.699l-9.853,8.275v-16.243l17.182-14.434c2.408-2.025,2.721-5.618,0.698-8.027
		c-2.024-2.409-5.618-2.722-8.027-0.698l-9.853,8.276v-16.245l17.181-14.428c2.409-2.023,2.722-5.618,0.7-8.027
		c-2.026-2.409-5.62-2.723-8.027-0.699l-9.854,8.276v-26.967c0-3.146-2.551-5.697-5.697-5.697c-3.146,0-5.697,2.551-5.697,5.697
		v26.964l-9.85-8.274c-2.409-2.023-6.003-1.712-8.028,0.699c-2.023,2.409-1.711,6.003,0.699,8.027l17.18,14.43v16.244l-9.85-8.275
		c-2.407-2.023-6.003-1.712-8.027,0.698c-2.024,2.409-1.713,6.003,0.698,8.027l17.18,14.434v16.243l-9.85-8.274
		c-2.409-2.023-6.003-1.712-8.027,0.699c-2.024,2.409-1.712,6.003,0.698,8.027l17.18,14.43v3.198l-65.09,9.798l29.463-52.037
		c0.999-1.764,0.985-3.926-0.035-5.677c-1.022-1.751-2.896-2.827-4.923-2.827h-12.222l38.265-57.226
		c1.169-1.748,1.28-3.997,0.289-5.852c-0.99-1.855-2.922-3.012-5.025-3.012h-4.598l29.575-40.708l29.575,40.708h-4.596
		c-2.103,0-4.035,1.158-5.025,3.012c-0.991,1.855-0.88,4.103,0.289,5.852l38.264,57.226h-12.218c-2.027,0-3.901,1.077-4.923,2.827
		c-1.022,1.751-1.034,3.912-0.035,5.676l29.461,52.038L231.055,407.541z"/>
	<path style="fill:#4F413B;" d="M400.907,160.843c-0.208-2.985-2.69-5.302-5.684-5.302h-19.616V86.966
		C375.607,39.012,336.596,0,288.644,0c-11.162,0-21.828,2.137-31.641,5.985C247.189,2.137,236.524,0,225.362,0
		c-47.955,0-86.968,39.012-86.968,86.966v68.574h-21.617c-2.993,0-5.476,2.317-5.684,5.302L87.11,505.906
		c-0.109,1.576,0.441,3.126,1.518,4.282c1.077,1.155,2.585,1.81,4.165,1.81h130.565h130.55c0.005,0,0.01,0.001,0.016,0.001
		c1.045,0,1.864-0.311,2.049-0.384l31.017-11.963l30.115,11.944c1.818,0.72,3.881,0.46,5.463-0.696
		c1.58-1.156,2.456-3.041,2.321-4.995L400.907,160.843z M378.809,166.935l-16.223,12.805l-16.225-12.805H378.809z M288.644,11.395
		c41.669,0,75.568,33.901,75.568,75.571v68.574h-51.886V86.966c0-30.973-16.287-58.196-40.734-73.607
		C277.075,12.089,282.778,11.395,288.644,11.395z M300.931,86.966v68.574H213.07V86.966c0-30.376,18.024-56.606,43.931-68.602
		C282.908,30.36,300.931,56.59,300.931,86.966z M149.788,86.966c0-41.67,33.902-75.571,75.573-75.571
		c5.865,0,11.567,0.694,17.051,1.964c-24.448,15.41-40.737,42.635-40.737,73.607v68.574h-51.887V86.966z M223.359,500.604H98.901
		l23.19-333.669h16.302v42.264c0,3.146,2.551,5.697,5.697,5.697s5.697-2.551,5.697-5.697v-42.264h151.143v42.264
		c0,3.146,2.551,5.697,5.697,5.697c3.146,0,5.697-2.551,5.697-5.697v-42.264h12.301l23.19,333.668H223.359V500.604z
		 M359.073,498.208l-22.552-324.521l20.584,16.244l23.899,299.818L359.073,498.208z M392.417,489.546l-23.91-299.963l21.781-17.191
		l22.609,325.277L392.417,489.546z"/>
	<path style="fill:#4F413B;" d="M143.496,300.35c-1.064,1.064-1.671,2.532-1.671,4.039c0,1.494,0.608,2.963,1.671,4.026
		c1.051,1.051,2.52,1.659,4.026,1.659c1.495,0,2.964-0.608,4.027-1.659c1.064-1.064,1.67-2.532,1.67-4.026
		c0-1.507-0.606-2.975-1.67-4.039c-1.064-1.051-2.532-1.659-4.027-1.659C146.017,298.692,144.547,299.299,143.496,300.35z"/>
	<path style="fill:#4F413B;" d="M126.493,369.756c-1.507,0-2.977,0.608-4.039,1.671c-1.051,1.064-1.659,2.532-1.659,4.026
		s0.606,2.963,1.659,4.026c1.064,1.064,2.532,1.671,4.039,1.671c1.494,0,2.963-0.608,4.026-1.671
		c1.064-1.064,1.671-2.532,1.671-4.026s-0.608-2.963-1.671-4.026C129.455,370.364,127.986,369.756,126.493,369.756z"/>
	<path style="fill:#4F413B;" d="M126.493,469.12c-1.507,0-2.977,0.608-4.039,1.671c-1.051,1.051-1.659,2.52-1.659,4.026
		c0,1.494,0.606,2.963,1.659,4.026c1.064,1.064,2.532,1.671,4.039,1.671c1.494,0,2.963-0.608,4.026-1.671
		c1.064-1.064,1.671-2.532,1.671-4.026s-0.608-2.963-1.671-4.026C129.455,469.729,127.986,469.12,126.493,469.12z"/>
	<path style="fill:#4F413B;" d="M143.851,259.315c1.494,0,2.963-0.62,4.026-1.671c1.064-1.064,1.671-2.532,1.671-4.026
		c0-1.507-0.608-2.975-1.671-4.039c-1.064-1.051-2.532-1.659-4.026-1.659c-1.507,0-2.977,0.608-4.039,1.659
		c-1.051,1.064-1.659,2.532-1.659,4.039c0,1.494,0.606,2.963,1.659,4.026C140.875,258.696,142.344,259.315,143.851,259.315z"/>
	<path style="fill:#4F413B;" d="M184.101,244.338c1.064,1.051,2.532,1.659,4.038,1.659c1.495,0,2.964-0.608,4.027-1.659
		c1.064-1.064,1.67-2.532,1.67-4.026c0-1.507-0.606-2.975-1.67-4.039c-1.064-1.064-2.532-1.671-4.027-1.671
		c-1.505,0-2.975,0.608-4.038,1.671c-1.064,1.064-1.671,2.532-1.671,4.039C182.428,241.806,183.037,243.274,184.101,244.338z"/>
	<path style="fill:#4F413B;" d="M177.985,192.694c1.494,0,2.963-0.608,4.026-1.671c1.064-1.064,1.671-2.52,1.671-4.026
		c0-1.494-0.608-2.963-1.671-4.026c-1.064-1.064-2.532-1.671-4.026-1.671c-1.507,0-2.975,0.608-4.039,1.671
		c-1.051,1.051-1.659,2.52-1.659,4.026s0.608,2.975,1.659,4.026C175.01,192.086,176.478,192.694,177.985,192.694z"/>
	<path style="fill:#4F413B;" d="M165.652,447.369c-1.505,0-2.975,0.608-4.026,1.659c-1.064,1.064-1.671,2.532-1.671,4.039
		c0,1.494,0.608,2.963,1.671,4.026c1.064,1.051,2.52,1.671,4.026,1.671c1.494,0,2.963-0.62,4.026-1.671
		c1.065-1.064,1.671-2.532,1.671-4.026c0-1.507-0.606-2.975-1.671-4.039C168.615,447.977,167.146,447.369,165.652,447.369z"/>
	<path style="fill:#4F413B;" d="M202.635,469.12c-1.494,0-2.963,0.608-4.026,1.671c-1.064,1.064-1.671,2.532-1.671,4.026
		s0.608,2.963,1.671,4.026c1.064,1.064,2.532,1.671,4.026,1.671c1.507,0,2.977-0.608,4.027-1.671c1.064-1.064,1.67-2.532,1.67-4.026
		s-0.608-2.963-1.67-4.026C205.612,469.729,204.143,469.12,202.635,469.12z"/>
	<path style="fill:#4F413B;" d="M225.362,208.545c1.494,0,2.963-0.608,4.026-1.671c1.051-1.064,1.66-2.52,1.66-4.026
		c0-1.507-0.608-2.975-1.66-4.026c-1.064-1.064-2.532-1.671-4.026-1.671c-1.507,0-2.975,0.608-4.039,1.671
		c-1.05,1.051-1.659,2.52-1.659,4.026c0,1.494,0.608,2.963,1.659,4.026C222.388,207.938,223.855,208.545,225.362,208.545z"/>
	<path style="fill:#4F413B;" d="M303.203,310.074c1.494,0,2.963-0.608,4.026-1.659c1.064-1.064,1.671-2.532,1.671-4.039
		c0-1.494-0.608-2.963-1.671-4.026c-1.064-1.064-2.532-1.671-4.026-1.671c-1.508,0-2.977,0.608-4.04,1.671
		c-1.051,1.064-1.671,2.532-1.671,4.026c0,1.507,0.62,2.975,1.671,4.039C300.226,309.466,301.695,310.074,303.203,310.074z"/>
	<path style="fill:#4F413B;" d="M320.194,371.429c-1.051,1.064-1.66,2.532-1.66,4.026c0,1.507,0.608,2.963,1.66,4.026
		c1.064,1.064,2.532,1.671,4.038,1.671c1.494,0,2.963-0.608,4.026-1.671c1.065-1.064,1.671-2.532,1.671-4.026
		s-0.606-2.963-1.671-4.026c-1.064-1.064-2.532-1.671-4.026-1.671C322.726,369.756,321.257,370.364,320.194,371.429z"/>
	<path style="fill:#4F413B;" d="M324.231,469.12c-1.505,0-2.975,0.608-4.038,1.671c-1.051,1.051-1.66,2.532-1.66,4.026
		c0,1.507,0.608,2.963,1.66,4.026c1.064,1.064,2.532,1.671,4.038,1.671c1.494,0,2.963-0.608,4.026-1.671
		c1.065-1.064,1.671-2.532,1.671-4.026s-0.606-2.963-1.671-4.026C327.194,469.729,325.725,469.12,324.231,469.12z"/>
	<path style="fill:#4F413B;" d="M306.873,247.92c-1.505,0-2.975,0.608-4.038,1.671c-1.051,1.051-1.66,2.52-1.66,4.026
		c0,1.494,0.608,2.963,1.66,4.026c1.064,1.064,2.532,1.671,4.038,1.671c1.494,0,2.963-0.608,4.026-1.671
		c1.065-1.064,1.671-2.532,1.671-4.026c0-1.507-0.606-2.975-1.671-4.026C309.836,248.527,308.367,247.92,306.873,247.92z"/>
	<path style="fill:#4F413B;" d="M262.586,245.995c1.494,0,2.963-0.608,4.026-1.659c1.064-1.064,1.671-2.532,1.671-4.039
		c0-1.494-0.608-2.963-1.671-4.026c-1.064-1.051-2.532-1.659-4.026-1.659c-1.507,0-2.977,0.608-4.039,1.659
		c-1.051,1.064-1.659,2.532-1.659,4.026c0,1.507,0.606,2.975,1.659,4.039C259.61,245.388,261.078,245.995,262.586,245.995z"/>
	<path style="fill:#4F413B;" d="M272.739,192.694c1.494,0,2.963-0.608,4.026-1.671c1.065-1.064,1.671-2.532,1.671-4.026
		c0-1.494-0.608-2.963-1.671-4.026c-1.064-1.064-2.532-1.671-4.026-1.671c-1.505,0-2.963,0.608-4.026,1.671
		c-1.064,1.064-1.671,2.532-1.671,4.026c0,1.507,0.608,2.975,1.671,4.026C269.778,192.086,271.234,192.694,272.739,192.694z"/>
	<path style="fill:#4F413B;" d="M285.072,447.356c-1.508,0-2.977,0.608-4.04,1.671c-1.051,1.064-1.657,2.532-1.657,4.039
		c0,1.494,0.606,2.963,1.657,4.026c1.064,1.051,2.532,1.659,4.04,1.659c1.494,0,2.963-0.608,4.026-1.659
		c1.064-1.064,1.671-2.532,1.671-4.026c0-1.507-0.608-2.975-1.671-4.039C288.033,447.963,286.565,447.356,285.072,447.356z"/>
	<path style="fill:#4F413B;" d="M248.077,469.12c-1.495,0-2.964,0.608-4.027,1.671c-1.064,1.064-1.67,2.532-1.67,4.026
		s0.608,2.963,1.67,4.026c1.064,1.064,2.532,1.671,4.027,1.671c1.494,0,2.963-0.608,4.026-1.671
		c1.064-1.064,1.671-2.532,1.671-4.026s-0.608-2.963-1.671-4.026C251.039,469.729,249.571,469.12,248.077,469.12z"/>
</g>
</svg>